<svg width="20" height="20" viewBox="0 0 20 20" fill="none" xmlns="http://www.w3.org/2000/svg">
<path d="M12.5 18.3333V15C12.6159 13.9561 12.3166 12.9084 11.6667 12.0833C14.1667 12.0833 16.6667 10.4167 16.6667 7.5C16.7333 6.45834 16.4417 5.43334 15.8333 4.58334C16.0667 3.62501 16.0667 2.62501 15.8333 1.66667C15.8333 1.66667 15 1.66667 13.3333 2.91667C11.1333 2.50001 8.86666 2.50001 6.66666 2.91667C4.99999 1.66667 4.16666 1.66667 4.16666 1.66667C3.91666 2.62501 3.91666 3.62501 4.16666 4.58334C3.55988 5.42991 3.26538 6.46066 3.33332 7.5C3.33332 10.4167 5.83332 12.0833 8.33332 12.0833C8.00832 12.4917 7.76666 12.9583 7.62499 13.4583C7.48332 13.9583 7.44166 14.4833 7.49999 15V18.3333" stroke="white" stroke-width="1.5" stroke-linecap="round" stroke-linejoin="round"/>
<path d="M7.49984 15C3.7415 16.6667 3.33317 13.3333 1.6665 13.3333" stroke="white" stroke-width="1.66667" stroke-linecap="round" stroke-linejoin="round"/>
</svg>
