<svg width="20" height="20" viewBox="0 0 20 20" fill="none" xmlns="http://www.w3.org/2000/svg">
<path d="M15.6306 19.9993C15.3876 19.9993 15.1897 19.8021 15.1897 19.559V12.8676C15.1897 10.4482 13.9481 10.4482 13.48 10.4482C12.1759 10.4482 11.5155 11.2621 11.5155 12.8676V19.5597C11.5155 19.8028 11.3183 20 11.0752 20H7.29134C7.04829 20 6.85107 19.8028 6.85107 19.5597V6.81225C6.85107 6.56921 7.04829 6.37199 7.29134 6.37199H11.0759C11.319 6.37199 11.5162 6.56921 11.5162 6.81225V7.28724L11.744 7.09905C12.6398 6.3581 13.7085 5.98242 14.9202 5.98242C16.4181 5.98242 17.6792 6.46088 18.5666 7.3671C19.5041 8.32401 19.9992 9.74896 19.9992 11.4871V19.5597C19.9992 19.8028 19.8013 20 19.5583 20L15.6306 19.9993ZM13.4807 9.56633C14.4487 9.56633 16.0723 9.99548 16.0723 12.8676V19.1188H19.1173V11.4871C19.1173 8.549 17.5875 6.86434 14.9202 6.86434C12.5384 6.86434 11.5065 8.66288 11.4634 8.73927C11.3856 8.88024 11.2384 8.96774 11.078 8.96774C11.0419 8.96774 11.0051 8.96218 10.9676 8.95315C10.7718 8.90385 10.635 8.72955 10.635 8.52956V7.25391H7.73229V19.1195H10.635V12.8676C10.635 10.8003 11.6988 9.56633 13.4807 9.56633Z" fill="white"/>
<path d="M0.819375 19.9993C0.576328 19.9993 0.378418 19.8021 0.378418 19.5591V6.81227C0.378418 6.56922 0.576328 6.37201 0.819375 6.37201H4.76716C5.0102 6.37201 5.20742 6.56922 5.20742 6.81227V19.5591C5.20742 19.8021 5.0102 19.9993 4.76716 19.9993H0.819375ZM1.26033 19.1188H4.3262V7.25323H1.26033V19.1188Z" fill="white"/>
<path d="M2.7756 5.58245C1.2451 5.58245 0 4.33041 0 2.79157C0 1.25204 1.2451 0 2.7756 0C4.30402 0 5.54842 1.25274 5.54842 2.79227C5.54842 4.33041 4.30402 5.58245 2.7756 5.58245ZM2.7756 0.879137C1.73119 0.879137 0.881914 1.73675 0.881914 2.79157C0.881914 3.8457 1.73119 4.70192 2.7756 4.70192C3.81931 4.70192 4.6679 3.8457 4.6679 2.79157C4.6672 1.73744 3.81931 0.879137 2.7756 0.879137Z" fill="white"/>
</svg>
