<?xml version="1.0" encoding="utf-8"?>
<!-- Generator: Adobe Illustrator 23.0.2, SVG Export Plug-In . SVG Version: 6.00 Build 0)  -->
<svg version="1.1" id="Layer_1" xmlns="http://www.w3.org/2000/svg" xmlns:xlink="http://www.w3.org/1999/xlink" x="0px" y="0px"
	 viewBox="0 0 1920 1080" style="enable-background:new 0 0 1920 1080;" xml:space="preserve">
<style type="text/css">
	.st0{fill:#47A5EA;}
	.st1{fill:#0064BC;}
</style>
<g>
	<polygon class="st0" points="767.36,625 713.89,625 713.89,391 767.36,391 767.36,411.55 734.44,411.55 734.44,604.45 
		767.36,604.45 	"/>
	<polygon class="st0" points="1209.49,625 1156.03,625 1156.03,604.45 1188.94,604.45 1188.94,411.55 1156.03,411.55 1156.03,391 
		1209.49,391 	"/>
	<g>
		<g>
			<path class="st1" d="M862.43,532.98h-4.05l-43.49-52.55v94.7h-17.96V447.51h16.2l47.19,60.63l47.01-60.63h16.2v127.62H905.4
				v-94.9L862.43,532.98z"/>
			<path class="st1" d="M950.47,557.42c4.05-4.62,10.92-4.62,14.97,0c4.05,4.43,4.05,11.74,0,16.36c-4.05,4.43-10.92,4.43-14.97,0
				C946.42,569.17,946.42,561.85,950.47,557.42z"/>
			<path class="st1" d="M1071.26,575.13l-28.7-39.08h-32.22v39.08h-17.96V447.51h52.82c22.01,0,40.85,14.05,40.85,44.47
				c0,19.83-9.68,34.45-24.65,40.81l32.05,42.35H1071.26z M1010.34,465.42v52.93h31.52c14.26,0,25.36-10.2,25.36-26.18
				c0-17.13-10.57-26.76-25.36-26.76H1010.34z"/>
			<path class="st1" d="M1109.47,557.42c4.05-4.62,10.92-4.62,14.97,0c4.05,4.43,4.05,11.74,0,16.36c-4.05,4.43-10.92,4.43-14.97,0
				C1105.42,569.17,1105.42,561.85,1109.47,557.42z"/>
			<path class="st0" d="M738.04,683.49v5.48h-26.52v-39.05h25.93v5.48h-20.43v10.78h17.68v5.48h-17.68v11.84H738.04z"/>
			<path class="st0" d="M763.47,659.52v29.45h-5.5v-39.05h5.5l22.85,29.75v-29.75h5.5v39.05h-5.55L763.47,659.52z"/>
			<path class="st0" d="M840.26,672.83h-10.94v-5.48h16.39v19.14c-3.07,1.88-8.09,3.06-12.61,3.06c-12.94,0-21.35-8.19-21.35-20.09
				c0-6.01,1.94-10.84,5.88-14.55c3.94-3.71,9.11-5.54,15.63-5.54c4.15,0,7.81,0.88,11.1,2.59l-0.54,5.71
				c-0.22-0.18-0.43-0.35-1.94-0.88c-1.83-0.83-4.9-1.71-8.62-1.71c-4.8,0-8.57,1.36-11.43,4.01c-2.8,2.65-4.21,6.07-4.21,10.37
				c0,4.3,1.4,7.78,4.15,10.43c2.75,2.65,6.47,3.95,11.16,3.95c3.23,0,5.66-0.47,7.33-1.36V672.83z"/>
			<path class="st0" d="M871.78,649.92v39.05h-5.5v-39.05H871.78z"/>
			<path class="st0" d="M899.48,659.52v29.45h-5.5v-39.05h5.5l22.85,29.75v-29.75h5.5v39.05h-5.55L899.48,659.52z"/>
			<path class="st0" d="M976.54,683.49v5.48h-26.52v-39.05h25.93v5.48h-20.43v10.78h17.68v5.48h-17.68v11.84H976.54z"/>
			<path class="st0" d="M1022.99,683.49v5.48h-26.52v-39.05h25.93v5.48h-20.43v10.78h17.68v5.48h-17.68v11.84H1022.99z"/>
			<path class="st0" d="M1067.06,688.97l-8.79-11.96h-9.86v11.96h-5.5v-39.05h16.17c6.74,0,12.5,4.3,12.5,13.61
				c0,6.07-2.97,10.54-7.55,12.49l9.81,12.96H1067.06z M1048.41,655.4v16.2h9.65c4.36,0,7.76-3.12,7.76-8.01
				c0-5.24-3.24-8.19-7.76-8.19H1048.41z"/>
			<path class="st0" d="M1098.21,649.92v39.05h-5.5v-39.05H1098.21z"/>
			<path class="st0" d="M1125.9,659.52v29.45h-5.5v-39.05h5.5l22.86,29.75v-29.75h5.5v39.05h-5.55L1125.9,659.52z"/>
			<path class="st0" d="M1202.69,672.83h-10.94v-5.48h16.39v19.14c-3.07,1.88-8.09,3.06-12.61,3.06c-12.94,0-21.35-8.19-21.35-20.09
				c0-6.01,1.94-10.84,5.88-14.55c3.94-3.71,9.11-5.54,15.63-5.54c4.15,0,7.81,0.88,11.1,2.59l-0.54,5.71
				c-0.22-0.18-0.43-0.35-1.94-0.88c-1.83-0.83-4.9-1.71-8.62-1.71c-4.8,0-8.57,1.36-11.43,4.01c-2.8,2.65-4.21,6.07-4.21,10.37
				c0,4.3,1.4,7.78,4.15,10.43c2.75,2.65,6.47,3.95,11.16,3.95c3.23,0,5.66-0.47,7.33-1.36V672.83z"/>
		</g>
	</g>
</g>
</svg>
